<mxfile host="app.diagrams.net" modified="2021-09-25T08:29:34.782Z" agent="5.0 (Windows NT 10.0; WOW64) AppleWebKit/537.36 (KHTML, like Gecko) Chrome/69.0.3947.100 Safari/537.36" etag="KtVi4FdF53_nD5fajySq" version="15.2.9" type="github">
  <diagram id="e5c_-zffoZMua6HEfUIk" name="Page-1">
    <mxGraphModel dx="1151" dy="628" grid="0" gridSize="10" guides="1" tooltips="1" connect="1" arrows="1" fold="1" page="1" pageScale="1" pageWidth="827" pageHeight="1169" math="0" shadow="0">
      <root>
        <mxCell id="0" />
        <mxCell id="1" parent="0" />
        <mxCell id="9gje_V4jAHg-oB1P-Pxg-5" style="edgeStyle=orthogonalEdgeStyle;rounded=0;orthogonalLoop=1;jettySize=auto;html=1;exitX=1;exitY=0.5;exitDx=0;exitDy=0;entryX=0;entryY=0.5;entryDx=0;entryDy=0;" parent="1" target="9gje_V4jAHg-oB1P-Pxg-3" edge="1">
          <mxGeometry relative="1" as="geometry">
            <mxPoint x="150" y="240" as="sourcePoint" />
          </mxGeometry>
        </mxCell>
        <mxCell id="9gje_V4jAHg-oB1P-Pxg-11" style="edgeStyle=orthogonalEdgeStyle;rounded=0;orthogonalLoop=1;jettySize=auto;html=1;exitX=1;exitY=0.5;exitDx=0;exitDy=0;entryX=0.5;entryY=0;entryDx=0;entryDy=0;" parent="1" source="9gje_V4jAHg-oB1P-Pxg-2" target="9gje_V4jAHg-oB1P-Pxg-10" edge="1">
          <mxGeometry relative="1" as="geometry" />
        </mxCell>
        <mxCell id="9gje_V4jAHg-oB1P-Pxg-2" value="1*1" style="whiteSpace=wrap;html=1;aspect=fixed;fillColor=#dae8fc;strokeColor=#6c8ebf;" parent="1" vertex="1">
          <mxGeometry x="210" y="130" width="50" height="50" as="geometry" />
        </mxCell>
        <mxCell id="9gje_V4jAHg-oB1P-Pxg-12" style="edgeStyle=orthogonalEdgeStyle;rounded=0;orthogonalLoop=1;jettySize=auto;html=1;exitX=1;exitY=0.5;exitDx=0;exitDy=0;entryX=0.5;entryY=1;entryDx=0;entryDy=0;" parent="1" source="9gje_V4jAHg-oB1P-Pxg-3" target="9gje_V4jAHg-oB1P-Pxg-10" edge="1">
          <mxGeometry relative="1" as="geometry" />
        </mxCell>
        <mxCell id="9gje_V4jAHg-oB1P-Pxg-3" value="1*1" style="whiteSpace=wrap;html=1;aspect=fixed;fillColor=#dae8fc;strokeColor=#6c8ebf;" parent="1" vertex="1">
          <mxGeometry x="210" y="215" width="50" height="50" as="geometry" />
        </mxCell>
        <mxCell id="9gje_V4jAHg-oB1P-Pxg-18" style="edgeStyle=orthogonalEdgeStyle;rounded=0;orthogonalLoop=1;jettySize=auto;html=1;exitX=1;exitY=0.5;exitDx=0;exitDy=0;entryX=0.5;entryY=1;entryDx=0;entryDy=0;" parent="1" source="9gje_V4jAHg-oB1P-Pxg-4" target="9gje_V4jAHg-oB1P-Pxg-16" edge="1">
          <mxGeometry relative="1" as="geometry" />
        </mxCell>
        <mxCell id="9gje_V4jAHg-oB1P-Pxg-4" value="1*1" style="whiteSpace=wrap;html=1;aspect=fixed;fillColor=#dae8fc;strokeColor=#6c8ebf;" parent="1" vertex="1">
          <mxGeometry x="210" y="289" width="50" height="50" as="geometry" />
        </mxCell>
        <mxCell id="9gje_V4jAHg-oB1P-Pxg-7" value="" style="endArrow=classic;html=1;entryX=0;entryY=0.5;entryDx=0;entryDy=0;" parent="1" edge="1">
          <mxGeometry width="50" height="50" relative="1" as="geometry">
            <mxPoint x="170" y="310" as="sourcePoint" />
            <mxPoint x="210" y="310" as="targetPoint" />
          </mxGeometry>
        </mxCell>
        <mxCell id="9gje_V4jAHg-oB1P-Pxg-8" value="" style="endArrow=classic;html=1;entryX=0;entryY=0.5;entryDx=0;entryDy=0;" parent="1" target="9gje_V4jAHg-oB1P-Pxg-2" edge="1">
          <mxGeometry width="50" height="50" relative="1" as="geometry">
            <mxPoint x="170" y="155" as="sourcePoint" />
            <mxPoint x="220" y="100" as="targetPoint" />
          </mxGeometry>
        </mxCell>
        <mxCell id="9gje_V4jAHg-oB1P-Pxg-13" style="edgeStyle=orthogonalEdgeStyle;rounded=0;orthogonalLoop=1;jettySize=auto;html=1;exitX=1;exitY=0.5;exitDx=0;exitDy=0;" parent="1" source="9gje_V4jAHg-oB1P-Pxg-10" edge="1">
          <mxGeometry relative="1" as="geometry">
            <mxPoint x="370" y="200" as="targetPoint" />
          </mxGeometry>
        </mxCell>
        <mxCell id="9gje_V4jAHg-oB1P-Pxg-10" value="x" style="ellipse;whiteSpace=wrap;html=1;aspect=fixed;fillColor=#f5f5f5;strokeColor=#666666;fontColor=#333333;" parent="1" vertex="1">
          <mxGeometry x="290" y="190" width="20" height="20" as="geometry" />
        </mxCell>
        <mxCell id="9gje_V4jAHg-oB1P-Pxg-14" value="softmax" style="text;html=1;resizable=0;autosize=1;align=center;verticalAlign=middle;points=[];fillColor=none;strokeColor=none;rounded=0;" parent="1" vertex="1">
          <mxGeometry x="300" y="180" width="60" height="20" as="geometry" />
        </mxCell>
        <mxCell id="9gje_V4jAHg-oB1P-Pxg-15" value="" style="whiteSpace=wrap;html=1;aspect=fixed;fillColor=#F8CECC;strokeColor=#6c8ebf;" parent="1" vertex="1">
          <mxGeometry x="370" y="170" width="50" height="50" as="geometry" />
        </mxCell>
        <mxCell id="9gje_V4jAHg-oB1P-Pxg-19" style="edgeStyle=orthogonalEdgeStyle;rounded=0;orthogonalLoop=1;jettySize=auto;html=1;exitX=1;exitY=0.5;exitDx=0;exitDy=0;" parent="1" source="9gje_V4jAHg-oB1P-Pxg-16" edge="1">
          <mxGeometry relative="1" as="geometry">
            <mxPoint x="460" y="270" as="targetPoint" />
          </mxGeometry>
        </mxCell>
        <mxCell id="9gje_V4jAHg-oB1P-Pxg-16" value="x" style="ellipse;whiteSpace=wrap;html=1;aspect=fixed;fillColor=#f5f5f5;strokeColor=#666666;fontColor=#333333;" parent="1" vertex="1">
          <mxGeometry x="390" y="260" width="20" height="20" as="geometry" />
        </mxCell>
        <mxCell id="9gje_V4jAHg-oB1P-Pxg-20" value="self attention&lt;br&gt;map" style="whiteSpace=wrap;html=1;aspect=fixed;fillColor=#dae8fc;strokeColor=#6c8ebf;" parent="1" vertex="1">
          <mxGeometry x="460" y="240" width="60" height="60" as="geometry" />
        </mxCell>
        <mxCell id="9gje_V4jAHg-oB1P-Pxg-22" value="" style="endArrow=none;html=1;" parent="1" edge="1">
          <mxGeometry width="50" height="50" relative="1" as="geometry">
            <mxPoint x="170" y="310" as="sourcePoint" />
            <mxPoint x="170" y="155" as="targetPoint" />
          </mxGeometry>
        </mxCell>
        <mxCell id="eC1C0tQg5qfdY3fukHSV-1" value="" style="shape=cube;whiteSpace=wrap;html=1;boundedLbl=1;backgroundOutline=1;darkOpacity=0.05;darkOpacity2=0.1;strokeColor=#666666;fillColor=#f5f5f5;fontColor=#333333;" vertex="1" parent="1">
          <mxGeometry x="120" y="200" width="30" height="80" as="geometry" />
        </mxCell>
        <mxCell id="eC1C0tQg5qfdY3fukHSV-2" value="" style="whiteSpace=wrap;html=1;aspect=fixed;fillColor=#FFE6CC;strokeColor=#6c8ebf;" vertex="1" parent="1">
          <mxGeometry x="384" y="180" width="50" height="50" as="geometry" />
        </mxCell>
        <mxCell id="eC1C0tQg5qfdY3fukHSV-3" value="attention&lt;br&gt;map" style="whiteSpace=wrap;html=1;aspect=fixed;fillColor=#dae8fc;strokeColor=#6c8ebf;" vertex="1" parent="1">
          <mxGeometry x="390" y="190" width="50" height="50" as="geometry" />
        </mxCell>
        <mxCell id="eC1C0tQg5qfdY3fukHSV-5" value="" style="endArrow=classic;html=1;strokeColor=#000000;strokeWidth=1;entryX=0.5;entryY=0;entryDx=0;entryDy=0;" edge="1" parent="1" target="9gje_V4jAHg-oB1P-Pxg-16">
          <mxGeometry width="50" height="50" relative="1" as="geometry">
            <mxPoint x="400" y="240" as="sourcePoint" />
            <mxPoint x="446" y="190" as="targetPoint" />
          </mxGeometry>
        </mxCell>
      </root>
    </mxGraphModel>
  </diagram>
</mxfile>
